<?xml version="1.0" encoding="utf-8"?>
<!-- Generator: Adobe Illustrator 23.0.0, SVG Export Plug-In . SVG Version: 6.00 Build 0)  -->
<svg version="1.1" xmlns="http://www.w3.org/2000/svg" xmlns:xlink="http://www.w3.org/1999/xlink" x="0px" y="0px"
	 viewBox="0 0 171 36" style="enable-background:new 0 0 171 36;" xml:space="preserve">
<style type="text/css">
	.st0{display:none;}
	.st1{display:inline;fill-rule:evenodd;clip-rule:evenodd;fill:url(#SVGID_1_);}
	.st2{display:inline;fill:#FFFFFF;}
	.st3{fill:#FFFFFF;}
	.st4{fill:#29A816;}
</style>
<g id="Layer_1" class="st0">
	
		<linearGradient id="SVGID_1_" gradientUnits="userSpaceOnUse" x1="15" y1="35" x2="15" y2="5" gradientTransform="matrix(1 0 0 -1 0 38)">
		<stop  offset="0" style="stop-color:#877EFF"/>
		<stop  offset="0.4615" style="stop-color:#685DFF"/>
		<stop  offset="1" style="stop-color:#3121FF"/>
	</linearGradient>
	<path class="st1" d="M27.8,18c0,7.1-5.7,12.8-12.8,12.8C7.9,30.8,2.2,25.1,2.2,18S7.9,5.2,15,5.2C22.1,5.2,27.8,10.9,27.8,18z
		 M30,18c0,8.3-6.7,15-15,15C6.7,33,0,26.3,0,18C0,9.7,6.7,3,15,3C23.3,3,30,9.7,30,18z M23.3,11.3c0,0.9-0.7,1.6-1.6,1.6
		c-0.9,0-1.6-0.7-1.6-1.6s0.7-1.6,1.6-1.6C22.6,9.7,23.3,10.4,23.3,11.3z M10.5,19.2c0.7,2.5,3.2,4,5.7,3.3c2.5-0.7,4-3.2,3.3-5.7
		s-3.2-4-5.7-3.3S9.8,16.7,10.5,19.2z M8.4,19.8c1,3.6,4.7,5.8,8.4,4.8c3.6-1,5.8-4.7,4.8-8.4c-1-3.6-4.7-5.8-8.4-4.8
		C9.6,12.4,7.4,16.1,8.4,19.8z"/>
	<path class="st2" d="M46.7,28.4c-1.5,0-2.9-0.3-4-0.8c-1.2-0.5-2.1-1.3-2.7-2.3c-0.7-1-1-2.2-1-3.7v-0.8h3.7v0.8
		c0,1.2,0.4,2.1,1.1,2.7c0.7,0.6,1.7,0.9,3,0.9c1.3,0,2.2-0.3,2.9-0.8c0.6-0.5,1-1.2,1-2c0-0.5-0.2-1-0.5-1.3
		c-0.3-0.3-0.8-0.6-1.4-0.8c-0.6-0.2-1.3-0.4-2.1-0.6l-0.7-0.1c-1.4-0.3-2.5-0.7-3.5-1.1c-1-0.5-1.7-1.1-2.2-1.8
		c-0.5-0.8-0.8-1.7-0.8-2.9s0.3-2.2,0.8-3.1c0.6-0.9,1.4-1.5,2.4-2C43.7,8,45,7.8,46.4,7.8c1.4,0,2.7,0.2,3.8,0.7
		c1.1,0.5,2,1.2,2.6,2.1c0.6,0.9,1,2.1,1,3.6v0.8H50v-0.8c0-0.8-0.2-1.4-0.5-1.8c-0.3-0.5-0.7-0.8-1.2-1c-0.5-0.2-1.2-0.3-2-0.3
		c-1.1,0-2,0.2-2.5,0.7c-0.5,0.4-0.8,1-0.8,1.7c0,0.5,0.1,0.9,0.4,1.2c0.3,0.3,0.7,0.6,1.2,0.8c0.5,0.2,1.2,0.4,2,0.6l0.7,0.1
		c1.4,0.3,2.6,0.7,3.7,1.2c1.1,0.5,1.9,1.1,2.5,1.9c0.6,0.8,0.9,1.8,0.9,3s-0.3,2.3-0.9,3.2c-0.6,0.9-1.5,1.6-2.6,2.1
		C49.6,28.1,48.3,28.4,46.7,28.4z M56.3,28V14h3.5v1.8h0.5c0.2-0.5,0.7-1,1.3-1.4c0.6-0.5,1.6-0.7,2.8-0.7c1.1,0,2,0.3,2.9,0.8
		c0.8,0.5,1.5,1.2,1.9,2.1c0.5,0.9,0.7,1.9,0.7,3.1V28h-3.6v-8.1c0-1.1-0.3-1.8-0.8-2.4c-0.5-0.5-1.2-0.8-2.2-0.8
		c-1.1,0-1.9,0.4-2.5,1.1c-0.6,0.7-0.9,1.7-0.9,3V28H56.3z M77.2,28.4c-1,0-1.9-0.2-2.7-0.5c-0.8-0.4-1.4-0.9-1.9-1.5
		c-0.5-0.7-0.7-1.5-0.7-2.5c0-1,0.2-1.8,0.7-2.4c0.5-0.7,1.1-1.1,1.9-1.5c0.8-0.3,1.8-0.5,2.8-0.5h3.8v-0.8c0-0.7-0.2-1.2-0.6-1.6
		c-0.4-0.4-1.1-0.7-2-0.7c-0.9,0-1.5,0.2-2,0.6c-0.4,0.4-0.7,0.9-0.8,1.6l-3.3-1.1c0.2-0.7,0.6-1.4,1.1-2c0.5-0.6,1.2-1.1,2-1.4
		c0.8-0.4,1.9-0.6,3.1-0.6c1.8,0,3.3,0.5,4.4,1.4c1.1,0.9,1.6,2.3,1.6,4v5.2c0,0.6,0.3,0.8,0.8,0.8h1.1V28h-2.4
		c-0.7,0-1.3-0.2-1.7-0.5s-0.7-0.8-0.7-1.4v0h-0.5c-0.1,0.2-0.2,0.5-0.5,0.9c-0.3,0.4-0.7,0.7-1.2,1C79,28.3,78.2,28.4,77.2,28.4z
		 M77.8,25.5c1,0,1.8-0.3,2.4-0.8c0.6-0.6,1-1.3,1-2.2v-0.3h-3.6c-0.7,0-1.2,0.1-1.6,0.4c-0.4,0.3-0.6,0.7-0.6,1.2
		c0,0.5,0.2,0.9,0.6,1.2C76.5,25.4,77.1,25.5,77.8,25.5z M88.4,33.7V14h3.5v1.7h0.5c0.3-0.5,0.8-1,1.5-1.4c0.7-0.4,1.6-0.7,2.9-0.7
		c1.1,0,2.2,0.3,3.1,0.8c1,0.5,1.7,1.4,2.3,2.4c0.6,1.1,0.9,2.4,0.9,3.9v0.5c0,1.5-0.3,2.8-0.9,3.9c-0.6,1.1-1.4,1.9-2.3,2.5
		c-1,0.5-2,0.8-3.1,0.8c-0.8,0-1.6-0.1-2.1-0.3c-0.6-0.2-1-0.4-1.4-0.7c-0.3-0.3-0.6-0.6-0.8-1h-0.5v7.3H88.4z M95.7,25.3
		c1.1,0,2-0.3,2.7-1c0.7-0.7,1.1-1.8,1.1-3.1v-0.3c0-1.4-0.4-2.4-1.1-3.1c-0.7-0.7-1.6-1.1-2.7-1.1c-1.1,0-2,0.4-2.7,1.1
		c-0.7,0.7-1.1,1.7-1.1,3.1v0.3c0,1.4,0.4,2.4,1.1,3.1C93.7,24.9,94.6,25.3,95.7,25.3z M104.9,21v-0.5c0-1.5,0.3-2.7,0.9-3.8
		c0.6-1.1,1.4-1.9,2.3-2.4c1-0.6,2-0.8,3.2-0.8c1.3,0,2.3,0.2,2.9,0.7c0.7,0.5,1.1,0.9,1.4,1.4h0.5V14h3.5v16.5c0,1-0.3,1.7-0.8,2.3
		c-0.6,0.6-1.3,0.9-2.3,0.9h-9.4v-3.1h8.1c0.5,0,0.8-0.3,0.8-0.8V26h-0.5c-0.2,0.3-0.5,0.6-0.8,0.9c-0.3,0.3-0.8,0.6-1.4,0.8
		c-0.6,0.2-1.3,0.3-2.1,0.3c-1.1,0-2.2-0.3-3.2-0.8c-1-0.6-1.7-1.4-2.3-2.4C105.1,23.8,104.9,22.5,104.9,21z M112.3,24.9
		c1.1,0,2-0.3,2.7-1c0.7-0.7,1.1-1.7,1.1-2.9v-0.3c0-1.3-0.4-2.3-1.1-2.9c-0.7-0.7-1.6-1-2.7-1c-1.1,0-2,0.3-2.7,1
		c-0.7,0.7-1.1,1.7-1.1,2.9V21c0,1.3,0.4,2.2,1.1,2.9C110.3,24.6,111.2,24.9,112.3,24.9z M122.7,28V14h3.5v1.6h0.5
		c0.2-0.6,0.5-1,1-1.2c0.5-0.3,1.1-0.4,1.7-0.4h1.7v3.2h-1.8c-0.9,0-1.6,0.2-2.2,0.7c-0.6,0.5-0.9,1.2-0.9,2.2v8H122.7z M137.1,28.4
		c-1,0-1.9-0.2-2.7-0.5c-0.8-0.4-1.4-0.9-1.9-1.5c-0.5-0.7-0.7-1.5-0.7-2.5c0-1,0.2-1.8,0.7-2.4c0.5-0.7,1.1-1.1,1.9-1.5
		c0.8-0.3,1.8-0.5,2.8-0.5h3.8v-0.8c0-0.7-0.2-1.2-0.6-1.6c-0.4-0.4-1.1-0.7-2-0.7c-0.9,0-1.5,0.2-2,0.6c-0.4,0.4-0.7,0.9-0.8,1.6
		l-3.3-1.1c0.2-0.7,0.6-1.4,1.1-2c0.5-0.6,1.2-1.1,2-1.4c0.8-0.4,1.9-0.6,3.1-0.6c1.8,0,3.3,0.5,4.4,1.4c1.1,0.9,1.6,2.3,1.6,4v5.2
		c0,0.6,0.3,0.8,0.8,0.8h1.1V28h-2.4c-0.7,0-1.3-0.2-1.7-0.5c-0.5-0.3-0.7-0.8-0.7-1.4v0h-0.5c-0.1,0.2-0.2,0.5-0.5,0.9
		c-0.3,0.4-0.7,0.7-1.2,1C138.9,28.3,138.1,28.4,137.1,28.4z M137.7,25.5c1,0,1.8-0.3,2.4-0.8c0.6-0.6,1-1.3,1-2.2v-0.3h-3.6
		c-0.7,0-1.2,0.1-1.6,0.4c-0.4,0.3-0.6,0.7-0.6,1.2c0,0.5,0.2,0.9,0.6,1.2C136.4,25.4,137,25.5,137.7,25.5z M148.2,28V14h3.5v1.5
		h0.5c0.2-0.5,0.6-0.9,1.2-1.2c0.6-0.4,1.3-0.5,2.2-0.5c1,0,1.8,0.2,2.4,0.6c0.6,0.4,1.1,0.9,1.4,1.5h0.5c0.3-0.6,0.8-1.1,1.4-1.5
		c0.6-0.4,1.4-0.6,2.5-0.6c0.9,0,1.7,0.2,2.3,0.6c0.7,0.4,1.3,0.9,1.7,1.7c0.4,0.7,0.6,1.7,0.6,2.8V28H165v-9c0-0.8-0.2-1.3-0.6-1.7
		c-0.4-0.4-1-0.6-1.7-0.6c-0.8,0-1.4,0.3-1.9,0.8c-0.4,0.5-0.7,1.2-0.7,2.2V28h-3.6v-9c0-0.8-0.2-1.3-0.6-1.7
		c-0.4-0.4-1-0.6-1.7-0.6c-0.8,0-1.4,0.3-1.9,0.8c-0.4,0.5-0.7,1.2-0.7,2.2V28H148.2z"/>
</g>
<g id="Layer_3">
	<g>
		<g>
			<path class="st3" d="M71.2,18.1c0-3.1,0-6.2,0-9.3c0-0.9,0-0.9,0.9-0.9c3.4,0,6.9,0,10.3,0c1.6,0,2.9,0.7,3.6,2.1
				c0.9,1.7,0.5,3.6-1,5c-0.9,0.8-1.7,1.7-2.6,2.5c-0.6,0.6-0.5,0.7,0,1.2c1,1,2.1,2,3,3c1.1,1.2,1.2,2.6,0.7,4
				c-0.6,1.6-1.8,2.5-3.5,2.5c-3.6,0-7.2,0-10.8,0c-0.6,0-0.6-0.3-0.6-0.8C71.2,24.4,71.2,21.2,71.2,18.1z M75.2,18.1
				c0,1.8,0,3.6,0,5.4c0,0.6,0.2,0.8,0.8,0.8c1.7,0,3.4,0,5,0c0.2,0,0.5-0.2,0.7-0.2c-0.1-0.2-0.2-0.5-0.4-0.7
				c-1.6-1.5-3.1-3.1-4.7-4.6c-0.6-0.6-0.6-0.7,0-1.3c1.6-1.5,3.2-3.1,4.7-4.6c0.2-0.2,0.2-0.4,0.3-0.7c-0.2-0.1-0.4-0.2-0.7-0.2
				c-1.7,0-3.4,0-5.1,0c-0.5,0-0.7,0.2-0.7,0.7C75.2,14.5,75.2,16.3,75.2,18.1z"/>
			<path class="st3" d="M104,28.2c0-0.4-0.1-0.6-0.1-0.9c0-6.2,0-12.4,0-18.7c0-0.6,0.1-0.8,0.7-0.8c3.5,0,6.9,0,10.4,0
				c1.7,0,3,0.7,3.7,2.3c0.6,1.5,0.5,3-0.5,4.2c-1.2,1.3-2.5,2.5-3.7,3.7c-0.5,0.5-0.6,0.8-0.2,1.5c1.5,2.6,3,5.3,4.4,7.9
				c0.1,0.2,0.2,0.5,0.4,0.9c-0.8,0-1.6-0.1-2.3,0c-1.6,0.2-2.6-0.2-3.3-1.8c-0.6-1.5-1.5-2.8-2.3-4.2c-0.4-0.6-0.5-0.6-1-0.1
				c-1.9,1.8-3.7,3.6-5.6,5.4C104.5,27.7,104.3,27.9,104,28.2z M111.2,11.9c-0.9,0-1.8,0-2.7,0c-0.4,0-0.6,0.1-0.6,0.5
				c0,1.9,0,3.8,0,5.6c0,0.1,0.1,0.3,0.2,0.4c0.1,0,0.2-0.1,0.3-0.1c0.4-0.4,0.9-0.8,1.3-1.2c1.4-1.4,2.9-2.7,4.3-4.1
				c0.2-0.2,0.2-0.5,0.4-0.8c-0.2-0.1-0.5-0.2-0.7-0.2C112.8,11.9,112,11.9,111.2,11.9z"/>
			<path class="st3" d="M121.9,8.2c1.1,1,2.1,2.1,3.2,3.1c2.4,2.3,4.7,4.6,7.1,6.9c0.1,0.1,0.3,0.2,0.5,0.3c0.1-0.2,0.2-0.4,0.2-0.6
				c0-3,0-6,0-9c0-0.9,0-1,0.9-1c0.8,0,1.5,0,2.3,0c0.6,0,0.8,0.2,0.8,0.9c0,4.4,0,8.7,0,13.1c0,1.8,0,3.7,0,5.5
				c0,0.2-0.1,0.4-0.2,0.6c-0.2-0.1-0.4-0.1-0.6-0.3c-2.9-2.8-5.7-5.6-8.6-8.4c-0.6-0.5-1.1-1.1-1.8-1.7c-0.1,0.4-0.1,0.7-0.1,1
				c0,2.9,0,5.9,0,8.8c0,1,0,1-1,1c-0.7,0-1.5,0-2.2,0c-0.7,0.1-0.9-0.2-0.9-0.9c0-3.8,0-7.7,0-11.5c0-2.3,0-4.7,0-7
				c0-0.3,0.1-0.5,0.1-0.8C121.8,8.2,121.8,8.2,121.9,8.2z"/>
			<path class="st3" d="M41,28.3c-1.6,0-3.2,0-4.8,0c-0.5,0-0.7-0.2-0.7-0.7c0-0.9,0-1.8,0-2.6c0-0.6,0.2-0.7,0.7-0.7
				c2.9,0,5.8,0,8.6,0c1.1,0,1.7-0.7,1.4-1.7c-0.1-0.4-0.5-0.8-0.8-1c-1.4-0.8-2.8-1.6-4.2-2.4c-1.1-0.6-2.2-1.2-3.3-1.9
				c-1.6-1-2.5-2.5-2.4-4.5c0.1-2.1,1-3.5,2.8-4.4C39,8,39.8,7.9,40.6,7.8c2.8-0.1,5.6,0,8.4,0c0.6,0,0.8,0.2,0.8,0.8
				c0,0.9,0,1.7,0,2.6c0,0.6-0.2,0.8-0.7,0.7c-2.5,0-5.1,0-7.6,0c-0.2,0-0.4,0-0.6,0c-0.5,0-0.9,0.3-1,0.8c-0.1,0.5,0.1,0.9,0.5,1.2
				c1.8,1,3.6,2.1,5.4,3.1c0.8,0.5,1.7,0.9,2.5,1.5c2,1.3,2.7,3.2,2.3,5.6c-0.4,2-1.6,3.4-3.6,4c-0.8,0.2-1.6,0.2-2.4,0.3
				C43.4,28.3,42.2,28.3,41,28.3z"/>
			<path class="st3" d="M69.3,28.3c-1.1,0-1.9,0-2.8,0c-1.9,0-1.4,0.2-2.1-1.5c-1.1-2.5-2-5-3-7.5c-0.1-0.2-0.3-0.4-0.5-0.7
				c-0.5,1.3-1,2.5-1.5,3.7c-0.8,1.9-1.5,3.7-2.3,5.6c-0.1,0.2-0.3,0.4-0.4,0.4c-1.3,0-2.6,0-4.1,0c2.8-6.8,5.5-13.5,8.2-20.2
				c0.1,0,0.2,0,0.2,0C63.7,14.8,66.5,21.5,69.3,28.3z"/>
			<path class="st3" d="M95.5,15c1.9,0,3.8,0,5.6,0c0.9,0,0.9,0,0.9,0.9c0,0.8,0,1.6,0,2.4c0,0.6-0.2,0.7-0.7,0.7c-2.5,0-5,0-7.5,0
				c-0.9,0-0.9,0-0.9,0.9c0,1.1,0,2.2,0,3.3c0,0.9,0,0.9,0.9,0.9c2.5,0,5,0,7.4,0c0.6,0,0.8,0.1,0.8,0.8c-0.1,0.9,0,1.8,0,2.7
				c0,0.4-0.2,0.6-0.6,0.6c-4,0-8,0-11.9,0c-0.4,0-0.6-0.2-0.6-0.6c0-4,0-8,0-12c0-0.5,0.2-0.7,0.7-0.7C91.5,15.1,93.5,15,95.5,15z"
				/>
			<path class="st3" d="M145.6,15c1.9,0,3.8,0,5.7,0c0.6,0,0.8,0.2,0.8,0.8c0,0.8,0,1.7,0,2.5c0,0.6-0.2,0.8-0.8,0.8
				c-2.4,0-4.9,0-7.3,0c-1,0-1,0-1,1.1c0,1.1,0,2.2,0,3.3c0,0.6,0.2,0.8,0.7,0.7c2.5,0,5,0,7.6,0c0.7,0,0.8,0.2,0.8,0.9
				c0,0.9,0,1.8,0,2.6c0,0.4-0.1,0.6-0.6,0.6c-4,0-8,0-11.9,0c-0.4,0-0.6-0.2-0.6-0.6c0-4,0-8,0-12c0-0.5,0.2-0.7,0.7-0.7
				C141.6,15.1,143.6,15,145.6,15z"/>
			<path class="st3" d="M159.5,20.1c0-2.4,0-4.9,0-7.3c0-0.7-0.2-0.9-0.8-0.9c-1.2,0-2.5,0-3.7,0c-0.5,0-0.7-0.2-0.7-0.7
				c0-0.9,0-1.9,0-2.8c0-0.5,0.2-0.6,0.6-0.6c4.4,0,8.8,0,13.3,0c0.4,0,0.6,0.1,0.6,0.6c0,1,0,1.9,0,2.9c0,0.4-0.2,0.6-0.6,0.6
				c-1.2,0-2.5,0-3.7,0c-0.9,0-0.9,0-0.9,0.9c0,4.8,0,9.6,0,14.5c0,1,0,1-1,1c-0.8,0-1.5,0-2.3,0c-0.6,0-0.8-0.2-0.8-0.8
				C159.5,25.1,159.5,22.6,159.5,20.1z"/>
			<path class="st3" d="M95.4,11.9c-1.9,0-3.8,0-5.7,0c-0.7,0-0.9-0.2-0.8-0.9c0-0.9,0-1.8,0-2.6c0-0.4,0.2-0.6,0.6-0.6
				c4,0,8,0,11.9,0c0.4,0,0.6,0.2,0.6,0.6c0,0.9,0,1.9,0,2.8c0,0.5-0.2,0.7-0.7,0.7C99.4,11.9,97.4,11.9,95.4,11.9z"/>
			<path class="st3" d="M145.5,11.9c-1.9,0-3.8,0-5.8,0c-0.6,0-0.8-0.2-0.8-0.8c0-0.9,0-1.8,0-2.6c0-0.5,0.1-0.7,0.6-0.7
				c3.9,0,7.9,0,11.8,0c0.5,0,0.7,0.1,0.7,0.7c0,0.9,0,1.8,0,2.7c0,0.6-0.2,0.7-0.7,0.7C149.4,11.9,147.4,11.9,145.5,11.9z"/>
		</g>
	</g>
	<g>
		<path class="st3" d="M7.9,7C7.7,6.9,7.7,6.9,7.6,6.8c-0.5-0.4-1-0.7-1.5-1.1C6.1,5.7,6,5.5,6,5.5c0-0.1,0.1-0.1,0.2-0.1
			c0.4,0,0.8-0.1,1.2-0.1c2.4,0,4.8-0.1,7.2,0c3.6,0.1,6.7,1.6,9,4.5c0.9,1,1.4,2.3,1.7,3.6c0.1,0.6,0.2,1.1,0.3,1.7
			c0,0.1,0.1,0.2,0.1,0.3c1.3,1.2,2.5,2.4,3.8,3.6c0.2,0.1,0.3,0.3,0.4,0.5c0.1,0.1,0.1,0.3-0.1,0.3c-1,0.2-1.9,0.4-2.9,0.6
			c-0.6,0.1-1.1-0.2-1.6-0.5c-1.2-0.9-2.5-1.7-3.9-2.2c-0.7-0.3-1.5-0.5-2.2-0.7c-0.9-0.2-1.9-0.4-2.8-0.5c-1.2-0.2-2.5-0.1-3.8,0
			c-1.5,0.2-2.8,0.6-4.1,1.4c-1,0.6-1.8,1.4-2.5,2.3c-0.5,0.7-0.9,1.4-1.3,2c-0.1,0.1-0.1,0.2-0.3,0.2c-0.3-1.9,0.1-3.7,1-5.4
			c0.9-1.7,2.3-2.9,4.1-3.6c0,0,0-0.1,0-0.1c-0.3-0.1-0.5-0.2-0.8-0.3c-1.5-0.4-3-0.1-4.4,0.4c-1.4,0.5-2.5,1.4-3.5,2.4
			c-0.1,0.1-0.1,0.1-0.2,0.1c0-0.1-0.1-0.2,0-0.2c0.1-1,0.5-2,0.9-2.9c0.8-1.5,1.8-2.9,3.1-4C5.8,8.2,6.8,7.5,7.9,7z M23.8,14.7
			c-0.2-0.2-0.4-0.4-0.6-0.6c-0.5-0.6-1-1.1-1.5-1.7c-0.6-0.7-1.3-1.2-2.1-1.3c-0.7-0.1-1.3-0.1-2-0.1c0,0-0.1,0-0.1,0.1
			c0.3,0.4,0.6,0.7,0.8,1.1c0.8,1.2,1.8,2.3,3.1,3c0.8,0.5,0.6,0.6,1.5,0c0,0,0.1,0,0.1-0.1C23.3,15,23.5,14.8,23.8,14.7z"/>
		<path class="st3" d="M24.1,26.7c0-0.8,0-1.5-0.2-2.3c-1.1,0.9-2.1,1.8-3.5,2.2c0-0.1-0.1-0.1-0.1-0.2c-0.2-2.3-1.2-4.1-3.1-5.3
			c-0.4-0.3-0.8-0.5-1.2-0.7c-0.1,0-0.1-0.1-0.2-0.2c0.1-0.1,0.1-0.1,0.2-0.2c0.8-0.2,1.7-0.2,2.5-0.1c2.1,0.2,3.9,1.1,5.8,2.2
			c0.7,0.4,1.3,0.8,2,1.2c0.3,0.2,0.3,0.3,0.1,0.6c-0.5,1-1.2,1.9-2,2.6C24.4,26.5,24.3,26.6,24.1,26.7z"/>
		<path class="st3" d="M9.8,22.5c1.1,0.3,2.1,0.5,3.1,0.8c1.8,0.5,3.4,1.4,4.4,3.1c0.2,0.3,0.3,0.6,0.5,0.9c0.4,0.8,1,1.3,1.6,1.9
			c0.1,0.1,0.2,0.2,0.3,0.2c0.2,0.2,0.4,0.2,0.6,0c0.4-0.3,0.8-0.6,1.1-1c0.3-0.2,0.5-0.5,0.8-0.8c0,0.1,0.1,0.2,0.1,0.3
			c0,0.8-0.3,1.5-0.6,2.1c-0.4,0.8-1,1.2-1.8,1.4c-0.7,0.1-1.4,0.1-2.1,0.1c-0.2,0-0.4,0-0.6,0c-0.2,0-0.3-0.1-0.3-0.3
			c0-0.5,0-0.9-0.1-1.4c-0.2-0.9-0.6-1.7-1.1-2.4c-0.7-0.9-1.5-1.5-2.5-1.9c-0.6-0.2-1.2-0.4-1.8-0.6c-0.3-0.1-0.7-0.2-0.9-0.6
			c-0.2-0.6-0.5-1.2-0.8-1.8C9.8,22.7,9.8,22.6,9.8,22.5z"/>
		<path class="st4" d="M23.8,14.7c-0.3,0.2-0.5,0.3-0.8,0.5c0,0-0.1,0-0.1,0.1c-0.9,0.6-0.7,0.5-1.5,0c-1.3-0.8-2.3-1.8-3.1-3
			c-0.2-0.4-0.6-0.7-0.8-1.1c0.1,0,0.1-0.1,0.1-0.1c0.7,0,1.3,0,2,0.1c0.9,0.1,1.6,0.7,2.1,1.3c0.5,0.6,1,1.1,1.5,1.7
			C23.4,14.3,23.6,14.5,23.8,14.7z"/>
	</g>
</g>
</svg>
